<svg width="24.000000" height="24.000000" viewBox="0 0 24 24" fill="none" xmlns="http://www.w3.org/2000/svg" xmlns:xlink="http://www.w3.org/1999/xlink">
	<desc>
			Created with Pixso.
	</desc>
	<defs>
		<clipPath id="clip4_16341">
			<rect id="Property 1=More_Horizontal" width="24.000000" height="24.000000" fill="white" fill-opacity="0"/>
		</clipPath>
	</defs>
	<g clip-path="url(#clip4_16341)">
		<path id="Vector" d="M17 12C17 11.4478 17.4473 11 18 11C18.5527 11 19 11.4478 19 12C19 12.5522 18.5527 13 18 13C17.4473 13 17 12.5522 17 12ZM11 12C11 11.4478 11.4473 11 12 11C12.5527 11 13 11.4478 13 12C13 12.5522 12.5527 13 12 13C11.4473 13 11 12.5522 11 12ZM5 12C5 11.4478 5.44727 11 6 11C6.55273 11 7 11.4478 7 12C7 12.5522 6.55273 13 6 13C5.44727 13 5 12.5522 5 12Z" stroke="#262633" stroke-opacity="1.000000" stroke-width="2.000000" stroke-linejoin="round"/>
	</g>
</svg>
