<svg  viewBox="0 0 20.0039 18" fill="none" xmlns="http://www.w3.org/2000/svg" >
    <path id="Vector" d="M1 4.2002C1 3.08008 1 2.51953 1.21802 2.0918C1.40967 1.71558 1.71558 1.40967 2.0918 1.21802C2.51953 1 3.08008 1 4.2002 1L15.8003 1C16.9204 1 17.48 1 17.908 1.21802C18.2842 1.40967 18.5906 1.71558 18.7822 2.0918C19 2.51929 19 3.0791 19 4.19702L19 13.803C19 14.2881 19 14.668 18.9822 14.9773C18.959 15.3813 18.9055 15.6655 18.7822 15.9075C18.5906 16.2837 18.2842 16.5906 17.908 16.7822C17.4805 17 16.9214 17 15.8035 17L4.19702 17C3.0791 17 2.51929 17 2.0918 16.7822C1.71558 16.5906 1.40967 16.2837 1.21802 15.9075C1.01343 15.5059 1.00073 14.9885 1 14C1 13.9355 1 13.8689 1 13.8003L1 4.2002ZM1 14L5.76807 8.4375L5.76929 8.43604C6.19238 7.94263 6.40405 7.69556 6.65527 7.60645C6.87598 7.52832 7.11694 7.53003 7.33643 7.61133C7.58667 7.70386 7.79517 7.95386 8.21191 8.4541L10.8831 11.6594C11.269 12.1226 11.4629 12.3555 11.6987 12.449C11.9065 12.5312 12.1357 12.5405 12.3501 12.4773C12.5942 12.4053 12.8091 12.1904 13.2388 11.7607L13.7358 11.2637C14.1733 10.8262 14.3921 10.6077 14.6396 10.5361C14.8572 10.4734 15.0896 10.4868 15.2988 10.5732C15.5371 10.6716 15.7302 10.9124 16.1167 11.3955L18.9822 14.9773M18.9822 14.9773L19 14.9995M12 6C12 5.44775 12.4478 5 13 5C13.5522 5 14 5.44775 14 6C14 6.55225 13.5522 7 13 7C12.4478 7 12 6.55225 12 6Z" stroke="#262633" stroke-opacity="1.000000" stroke-width="2.000000" stroke-linejoin="round"/>
</svg>
