<svg width="24.000000" height="24.000000" viewBox="0 0 24 24" fill="none" xmlns="http://www.w3.org/2000/svg" xmlns:xlink="http://www.w3.org/1999/xlink">
	
	<defs>
		<clipPath id="clip2_178359">
			<rect id="Bell" width="24.000000" height="24.000000" fill="white" fill-opacity="0"/>
		</clipPath>
	</defs>
	<g clip-path="url(#clip2_178359)">
		<path id="Vector" d="M4.80371 14.1963C4.9292 14.0706 5 13.9002 5 13.7224L5 10C5 6.13402 8.13379 3.00002 12 3C15.8662 2.99998 19 6.134 19 10L19 13.7224C19 13.9001 19.0708 14.0706 19.1963 14.1963L19.5859 14.5858C19.7046 14.7048 19.7651 14.7651 19.8125 14.8312C19.9023 14.9563 19.9614 15.1004 19.9863 15.2524C19.9995 15.3329 19.9995 15.4172 19.9995 15.5859C19.9995 15.9715 19.9995 16.1643 19.9473 16.3198C19.8477 16.6156 19.6157 16.848 19.3203 16.9478C19.165 17 18.9731 17 18.5903 17L15 17L9 17L5.40967 17C5.02686 17 4.83545 17 4.68066 16.9478C4.38477 16.848 4.15234 16.6156 4.05225 16.3197C4 16.1642 4 15.9715 4 15.586C4 15.4172 4 15.3329 4.01318 15.2524C4.03809 15.1004 4.09766 14.9564 4.1875 14.8313C4.23486 14.765 4.29492 14.7051 4.41406 14.5858L4.80371 14.1963ZM15 17L15 18C15 19.6569 13.6567 21 12 21C10.3433 21 9 19.6569 9 18L9 17" stroke="#262633" stroke-opacity="1.000000" stroke-width="2.000000" stroke-linejoin="round"/>
	</g>
</svg>

