<svg viewBox="0 0 24 24" fill="none" xmlns="http://www.w3.org/2000/svg" xmlns:xlink="http://www.w3.org/1999/xlink">
	<defs>
		<clipPath id="clip80_50713">
			<rect width="24.000000" height="24.000000" fill="white" fill-opacity="0"/>
		</clipPath>
	</defs>
	<g clip-path="url(#clip80_50713)">
		<path d="M4 16L12 8L14.8672 5.13135L14.8711 5.12988C15.2656 4.73486 15.4648 4.53711 15.6914 4.46289C15.8906 4.39771 16.1094 4.39771 16.3086 4.46289C16.5352 4.53711 16.7344 4.73462 17.1289 5.12891L18.8672 6.86865C19.2656 7.26465 19.4609 7.46289 19.5352 7.69116C19.6016 7.89209 19.6016 8.1084 19.5352 8.30908C19.4609 8.53735 19.2656 8.73511 18.8711 9.13062L18.8672 9.13135L16 12L8 20L4 20L4 16ZM12 8L16 12" stroke="#262633" stroke-opacity="1.000000" stroke-width="2.000000" stroke-linejoin="round"/>
	</g>
</svg>
