<svg viewBox="0 0 24 24" fill="none" xmlns="http://www.w3.org/2000/svg" xmlns:xlink="http://www.w3.org/1999/xlink">
	<defs>
		<clipPath id="clip29_150663">
			<rect id="Bookmark" width="24.000000" height="24.000000" fill="white" fill-opacity="0"/>
		</clipPath>
	</defs>
	<g clip-path="url(#clip29_150663)">
		<path id="Vector" d="M6 7.2C6 6.08 6 5.51 6.21 5.09C6.4 4.71 6.71 4.4 7.09 4.21C7.51 4 8.08 4 9.2 4L14.8 4C15.92 4 16.47 4 16.9 4.21C17.28 4.4 17.59 4.71 17.78 5.09C18 5.51 18 6.07 18 7.19L18 16.68C18 18.04 18 18.72 17.79 19.14C17.41 19.91 16.58 20.35 15.73 20.24C15.27 20.18 14.7 19.8 13.57 19.05C13.12 18.75 12.9 18.6 12.66 18.51C12.23 18.36 11.76 18.36 11.33 18.51C11.09 18.6 10.87 18.75 10.42 19.04L10.42 19.05C9.28 19.8 8.72 20.18 8.26 20.24C7.41 20.35 6.58 19.91 6.2 19.14C6 18.72 6 18.04 6 16.68L6 7.2Z" stroke="#262633" stroke-opacity="1.000000" stroke-width="2.000000" stroke-linejoin="round"/>
	</g>
</svg>
