<svg viewBox="0 0 24 24" fill="none" xmlns="http://www.w3.org/2000/svg" xmlns:xlink="http://www.w3.org/1999/xlink">
	<defs>
		<clipPath id="clip30_90224">
			<rect id="Building_02" width="24.000000" height="24.000000" fill="white" fill-opacity="0"/>
		</clipPath>
	</defs>
	<g clip-path="url(#clip30_90224)">
		<path id="Vector" d="M2 20L4 20L12 20L20 20L22 20M20 20L20 14.3682C20 13.843 20 13.5798 19.9375 13.335C19.8809 13.1179 19.7891 12.9119 19.6641 12.7251C19.5254 12.5146 19.3301 12.3389 18.9395 11.9878L16.6387 9.92139C15.8828 9.24219 15.5039 8.90283 15.0781 8.77393C14.7012 8.6604 14.2988 8.6604 13.9219 8.77393C13.4961 8.90283 13.1172 9.24243 12.3613 9.92139L12 10.2461M4 20L4 7.2002C4 6.08008 4 5.51953 4.21875 5.0918C4.41016 4.71558 4.71484 4.40967 5.0918 4.21802C5.51953 4 6.08008 4 7.19922 4L8.80078 4C9.91992 4 10.4805 4 10.9082 4.21802C11.2852 4.40967 11.5898 4.71558 11.7812 5.0918C12 5.51929 12 6.0791 12 7.19702L12 10.2461L12 20" stroke="#5533FF" stroke-opacity="1.000000" stroke-width="2.000000" stroke-linejoin="round" stroke-linecap="round"/>
	</g>
</svg>
