<svg  viewBox="0 0 24 24" fill="none" xmlns="http://www.w3.org/2000/svg" xmlns:xlink="http://www.w3.org/1999/xlink">
	<defs>
		<clipPath id="clip40_54372">
			<rect id="Camera" width="24.000000" height="24.000000" fill="white" fill-opacity="0"/>
		</clipPath>
	</defs>
	<g clip-path="url(#clip40_54372)">
		<path id="Vector" d="M9 13C9 11.34 10.34 10 12 10C13.65 10 15 11.34 15 13C15 14.65 13.65 16 12 16C10.34 16 9 14.65 9 13ZM3 10.2C3 9.08 3 8.51 3.21 8.09C3.41 7.71 3.71 7.4 4.09 7.21C4.51 7 5.08 7 6.19 7L9.48 7L9.55 7L14.44 7L14.51 7L17.8 7C18.91 7 19.48 7 19.9 7.21C20.28 7.4 20.58 7.71 20.78 8.09C21 8.51 21 9.07 21 10.19L21 15.8C21 16.92 21 17.48 20.78 17.9C20.58 18.28 20.28 18.59 19.9 18.78C19.48 19 18.92 19 17.8 19L6.19 19C5.07 19 4.51 19 4.09 18.78C3.71 18.59 3.41 18.28 3.21 17.9C3 17.47 3 16.92 3 15.8L3 10.2ZM9.48 7C9.38 7 9.32 6.99 9.27 6.99C8.68 6.92 8.28 6.36 8.41 5.79C8.41 5.73 8.44 5.66 8.48 5.53L8.49 5.52C8.54 5.37 8.56 5.29 8.59 5.22C8.88 4.53 9.54 4.06 10.29 4C10.36 4 10.44 4 10.61 4L13.38 4C13.55 4 13.63 4 13.7 4C14.45 4.06 15.11 4.53 15.4 5.22C15.43 5.29 15.45 5.37 15.5 5.52C15.55 5.66 15.58 5.73 15.58 5.79C15.71 6.36 15.31 6.92 14.72 6.99C14.67 6.99 14.61 7 14.51 7M9.55 7L9.52 7C9.51 7 9.5 7 9.48 7M14.44 7L14.47 7C14.48 7 14.49 7 14.51 " stroke="#262633" stroke-opacity="1.000000" stroke-width="2.000000" stroke-linejoin="round"/>
	</g>
</svg>
