<svg  viewBox="0 0 24 24" fill="none" xmlns="http://www.w3.org/2000/svg" xmlns:xlink="http://www.w3.org/1999/xlink">
	<defs>
		<clipPath id="clip2_178380">
			<rect id="Chat_Circle" width="24.000000" height="24.000000" fill="white" fill-opacity="0"/>
		</clipPath>
	</defs>
	<g clip-path="url(#clip2_178380)">
		<path id="Vector" d="M7.50977 19.8018L7.50586 19.7994C7.37793 19.7257 7.31348 19.6887 7.25293 19.6719C7.1958 19.6561 7.14453 19.6507 7.08545 19.6548C7.02197 19.6591 6.95557 19.6813 6.82422 19.7251L4.51758 20.4939L4.51172 20.4962C4.02686 20.6577 3.78467 20.7384 3.62305 20.6807C3.48145 20.6303 3.36963 20.5187 3.31934 20.3774C3.26172 20.2152 3.34277 19.9719 3.50488 19.4853L3.50586 19.4823L4.2749 17.1758C4.31836 17.044 4.33984 16.9781 4.34424 16.9146C4.34863 16.8554 4.34424 16.804 4.32812 16.7469C4.31152 16.6862 4.27441 16.6221 4.20117 16.495L4.19824 16.4899C3.43604 15.1684 3 13.6351 3 12C3 7.02943 7.0293 3 12 3C16.9707 3 21 7.02943 21 12C21 16.9706 16.9702 21 11.9995 21C10.3647 21 8.83105 20.5639 7.50977 19.8018Z" stroke="#262633" stroke-opacity="1.000000" stroke-width="2.000000" stroke-linejoin="round"/>
	</g>
</svg>
