<svg  viewBox="0 0 14 18.2631" fill="none" xmlns="http://www.w3.org/2000/svg">
	<path id="Vector" d="M1 4.2002C1 3.08008 1 2.51959 1.21777 2.0918C1.40967 1.71545 1.71533 1.40973 2.0918 1.21796C2.51953 1 3.08008 1 4.2002 1L9.80029 1C10.9204 1 11.4795 1 11.9072 1.21796C12.2837 1.40973 12.5903 1.71545 12.7822 2.0918C13 2.51923 13 3.07898 13 4.1969L13 13.6854C13 15.0462 13 15.7269 12.7959 16.1432C12.4175 16.9152 11.5884 17.3586 10.7363 17.2452C10.2769 17.1841 9.70996 16.8069 8.57715 16.0519C8.12646 15.7515 7.90137 15.6012 7.66602 15.5181C7.23486 15.3657 6.76416 15.3657 6.33301 15.5181C6.09814 15.6011 5.87354 15.7507 5.4248 16.0499L5.42188 16.0518C4.28955 16.8068 3.72363 17.1842 3.26367 17.2454C2.41162 17.3588 1.58252 16.9152 1.2041 16.1432C1 15.7268 1 15.0464 1 13.6854L1 4.2002Z" stroke="#5533FF" stroke-opacity="1.000000" stroke-width="2.000000" stroke-linejoin="round"/>
</svg>
