<svg width="35.000000" height="27.666992" viewBox="0 0 35 27.667" fill="none" xmlns="http://www.w3.org/2000/svg" xmlns:xlink="http://www.w3.org/1999/xlink">
    <desc>
        Created with Pixso.
    </desc>
    <defs/>
    <path id="Vector" d="M1 6.86719C1 4.81348 1 3.78613 1.39941 3.00195C1.75098 2.31152 2.31152 1.75098 3.00195 1.39941C3.78613 1 4.81348 1 6.86719 1L28.1338 1C30.1875 1 31.2129 1 31.9971 1.39941C32.6865 1.75098 33.249 2.31152 33.6006 3.00195C34 3.78516 34 4.81152 34 6.86133L34 20.8066C34 22.8564 34 23.8809 33.6006 24.6641C33.249 25.3545 32.6865 25.916 31.9971 26.2676C31.2129 26.667 30.1885 26.667 28.1387 26.667L6.86133 26.667C4.81152 26.667 3.78516 26.667 3.00195 26.2676C2.31152 25.916 1.75098 25.3545 1.39941 24.6641C1 23.8799 1 22.8535 1 20.8008L1 6.86719ZM2.83301 2.83301L14.0303 11.2891L14.0342 11.292C15.2773 12.2041 15.8994 12.6602 16.5811 12.8359C17.1836 12.9922 17.8164 12.9922 18.418 12.8359C19.1006 12.6602 19.7246 12.2021 20.9697 11.2891C20.9697 11.2891 28.1514 5.77734 32.167 2.83301" stroke="#262633" stroke-opacity="1.000000" stroke-width="2.000000" stroke-linejoin="round" stroke-linecap="round"/>
</svg>
