<svg  viewBox="0 0 13.9629 9.5" fill="none" xmlns="http://www.w3.org/2000/svg" >
    <path id="Vector" d="M1.37305 5.93579C1.05957 5.62451 0.90332 5.46899 0.803711 5.16333C0.732422 4.94556 0.732422 4.55444 0.803711 4.33667C0.90332 4.03101 1.05957 3.87524 1.37305 3.56396C2.55859 2.38477 4.62793 0.75 6.98145 0.75C9.33496 0.75 11.4033 2.38477 12.5898 3.56396C12.9033 3.87524 13.0596 4.03125 13.1592 4.33667C13.2305 4.55444 13.2305 4.94556 13.1592 5.16333C13.0596 5.46875 12.9033 5.62476 12.5898 5.93579C11.4033 7.11523 9.33496 8.75 6.98145 8.75C4.62793 8.75 2.55859 7.11523 1.37305 5.93579ZM5.64844 4.75C5.64844 4.01367 6.24512 3.41675 6.98145 3.41675C7.71777 3.41675 8.31445 4.01367 8.31445 4.75C8.31445 5.48633 7.71777 6.08325 6.98145 6.08325C6.24512 6.08325 5.64844 5.48633 5.64844 4.75Z" stroke="#FFFFFF" stroke-opacity="1.000000" stroke-width="1.500000" stroke-linejoin="round"/>
</svg>
