<svg width="32.000000" height="32.000000" viewBox="0 0 32 32" fill="none" xmlns="http://www.w3.org/2000/svg" xmlns:xlink="http://www.w3.org/1999/xlink">
	<desc>
			Created with Pixso.
	</desc>
	<defs/>
	<mask id="mask2276_39527" mask-type="alpha" maskUnits="userSpaceOnUse" x="0.000000" y="0.000000" width="32.000000" height="32.000000">
		<path id="Vector" d="M31.6279 13.0908L16.3721 13.0908L16.3721 19.2725L25.1533 19.2725C24.335 23.2002 20.9121 25.4541 16.3721 25.4541C13.8066 25.4541 11.3457 24.458 9.53125 22.6855C7.7168 20.9121 6.69727 18.5078 6.69727 16C6.69727 13.4922 7.7168 11.0879 9.53125 9.31445C11.3457 7.54199 13.8066 6.5459 16.3721 6.5459C18.5713 6.54297 20.7021 7.28906 22.4004 8.6543L27.1631 4C24.1855 1.4248 20.3477 0.00292969 16.3721 0C14.2207 -0.00585938 12.0889 0.404297 10.0996 1.20605C8.11035 2.00781 6.30371 3.18652 4.78223 4.67383C3.26074 6.16016 2.05469 7.92676 1.23438 9.87012C0.414062 11.8145 -0.00585938 13.8975 0 16C-0.00585938 18.1025 0.414062 20.1855 1.23438 22.1299C2.05469 24.0732 3.26074 25.8398 4.78223 27.3262C6.30371 28.8135 8.11035 29.9922 10.0996 30.7939C12.0889 31.5957 14.2207 32.0059 16.3721 32C24.5586 32 32 26.1816 32 16C31.9863 15.0195 31.8613 14.0439 31.6279 13.0908Z" fill="#000000" fill-opacity="1.000000" fill-rule="nonzero"/>
	</mask>
	<g mask="url(#mask2276_39527)">
		<path id="Vector" d="M-1.48633 25.4551L-1.48633 6.5459L11.165 16L-1.48633 25.4551Z" fill="#FBBC05" fill-opacity="1.000000" fill-rule="nonzero"/>
	</g>
	<mask id="mask2276_39532" mask-type="alpha" maskUnits="userSpaceOnUse" x="0.000000" y="0.000000" width="32.000000" height="32.000000">
		<path id="Vector" d="M31.6279 13.0908L16.3721 13.0908L16.3721 19.2725L25.1533 19.2725C24.335 23.2002 20.9121 25.4541 16.3721 25.4541C13.8066 25.4541 11.3457 24.458 9.53125 22.6855C7.7168 20.9121 6.69727 18.5078 6.69727 16C6.69727 13.4922 7.7168 11.0879 9.53125 9.31445C11.3457 7.54199 13.8066 6.5459 16.3721 6.5459C18.5713 6.54297 20.7021 7.28906 22.4004 8.6543L27.1631 4C24.1855 1.4248 20.3477 0.00292969 16.3721 0C14.2207 -0.00585938 12.0889 0.404297 10.0996 1.20605C8.11035 2.00781 6.30371 3.18652 4.78223 4.67383C3.26074 6.16016 2.05469 7.92676 1.23438 9.87012C0.414062 11.8145 -0.00585938 13.8975 0 16C-0.00585938 18.1025 0.414062 20.1855 1.23438 22.1299C2.05469 24.0732 3.26074 25.8398 4.78223 27.3262C6.30371 28.8135 8.11035 29.9922 10.0996 30.7939C12.0889 31.5957 14.2207 32.0059 16.3721 32C24.5586 32 32 26.1816 32 16C31.9863 15.0195 31.8613 14.0439 31.6279 13.0908Z" fill="#000000" fill-opacity="1.000000" fill-rule="nonzero"/>
	</mask>
	<g mask="url(#mask2276_39532)">
		<path id="Vector" d="M-1.48633 6.54492L11.165 15.999L16.374 11.5635L34.2344 8.72656L34.2344 -1.45508L-1.48633 -1.45508L-1.48633 6.54492Z" fill="#EA4335" fill-opacity="1.000000" fill-rule="nonzero"/>
	</g>
	<mask id="mask2276_39537" mask-type="alpha" maskUnits="userSpaceOnUse" x="0.000000" y="0.000000" width="32.000000" height="32.000000">
		<path id="Vector" d="M31.6279 13.0908L16.3721 13.0908L16.3721 19.2725L25.1533 19.2725C24.335 23.2002 20.9121 25.4541 16.3721 25.4541C13.8066 25.4541 11.3457 24.458 9.53125 22.6855C7.7168 20.9121 6.69727 18.5078 6.69727 16C6.69727 13.4922 7.7168 11.0879 9.53125 9.31445C11.3457 7.54199 13.8066 6.5459 16.3721 6.5459C18.5713 6.54297 20.7021 7.28906 22.4004 8.6543L27.1631 4C24.1855 1.4248 20.3477 0.00292969 16.3721 0C14.2207 -0.00585938 12.0889 0.404297 10.0996 1.20605C8.11035 2.00781 6.30371 3.18652 4.78223 4.67383C3.26074 6.16016 2.05469 7.92676 1.23438 9.87012C0.414062 11.8145 -0.00585938 13.8975 0 16C-0.00585938 18.1025 0.414062 20.1855 1.23438 22.1299C2.05469 24.0732 3.26074 25.8398 4.78223 27.3262C6.30371 28.8135 8.11035 29.9922 10.0996 30.7939C12.0889 31.5957 14.2207 32.0059 16.3721 32C24.5586 32 32 26.1816 32 16C31.9863 15.0195 31.8613 14.0439 31.6279 13.0908Z" fill="#000000" fill-opacity="1.000000" fill-rule="nonzero"/>
	</mask>
	<g mask="url(#mask2276_39537)">
		<path id="Vector" d="M-1.48633 25.4541L20.8389 8.72656L26.7188 9.4541L34.2344 -1.45508L34.2344 33.4541L-1.48633 33.4541L-1.48633 25.4541Z" fill="#34A853" fill-opacity="1.000000" fill-rule="nonzero"/>
	</g>
	<mask id="mask2276_39542" mask-type="alpha" maskUnits="userSpaceOnUse" x="0.000000" y="0.000000" width="32.000000" height="32.000000">
		<path id="Vector" d="M31.6279 13.0908L16.3721 13.0908L16.3721 19.2725L25.1533 19.2725C24.335 23.2002 20.9121 25.4541 16.3721 25.4541C13.8066 25.4541 11.3457 24.458 9.53125 22.6855C7.7168 20.9121 6.69727 18.5078 6.69727 16C6.69727 13.4922 7.7168 11.0879 9.53125 9.31445C11.3457 7.54199 13.8066 6.5459 16.3721 6.5459C18.5713 6.54297 20.7021 7.28906 22.4004 8.6543L27.1631 4C24.1855 1.4248 20.3477 0.00292969 16.3721 0C14.2207 -0.00585938 12.0889 0.404297 10.0996 1.20605C8.11035 2.00781 6.30371 3.18652 4.78223 4.67383C3.26074 6.16016 2.05469 7.92676 1.23438 9.87012C0.414062 11.8145 -0.00585938 13.8975 0 16C-0.00585938 18.1025 0.414062 20.1855 1.23438 22.1299C2.05469 24.0732 3.26074 25.8398 4.78223 27.3262C6.30371 28.8135 8.11035 29.9922 10.0996 30.7939C12.0889 31.5957 14.2207 32.0059 16.3721 32C24.5586 32 32 26.1816 32 16C31.9863 15.0195 31.8613 14.0439 31.6279 13.0908Z" fill="#000000" fill-opacity="1.000000" fill-rule="nonzero"/>
	</mask>
	<g mask="url(#mask2276_39542)">
		<path id="Vector" d="M34.2344 33.4551L11.1641 16L8.1875 13.8184L34.2344 6.5459L34.2344 33.4551Z" fill="#4285F4" fill-opacity="1.000000" fill-rule="nonzero"/>
	</g>
</svg>
