<svg  viewBox="0 0 44 44" fill="none" xmlns="http://www.w3.org/2000/svg" >
    <path id="Union" d="M2.63965 16.2812C2.1543 16.2812 1.75977 16.6748 1.75977 17.1611L1.75977 20.6807L16.2793 20.6807C16.7646 20.6807 17.1592 20.2871 17.1592 19.8008L17.1592 17.1611C17.1592 16.6748 16.7646 16.2812 16.2793 16.2812L2.63965 16.2812ZM29.4785 23.3193L1.75977 23.3193L1.75977 26.8389C1.75977 27.3252 2.15332 27.7197 2.63965 27.7197L29.4785 27.7197C29.9639 27.7197 30.3584 27.3252 30.3584 26.8389L30.3584 24.1992C30.3584 23.7139 29.9639 23.3193 29.4785 23.3193Z" fill="#E43F56" fill-opacity="1.000000" fill-rule="evenodd"/>
    <path id="Union" d="M2.63965 16.2812C2.1543 16.2812 1.75977 16.6748 1.75977 17.1611L1.75977 20.6807L16.2793 20.6807C16.7646 20.6807 17.1592 20.2871 17.1592 19.8008L17.1592 17.1611C17.1592 16.6748 16.7646 16.2812 16.2793 16.2812L2.63965 16.2812Z" fill="#327BBE" fill-opacity="1.000000" fill-rule="evenodd"/>
    <path id="Subtract" d="M41.292 14.5957C41.1182 12.3281 39.3848 9.4209 37.6514 8.02539C35.7012 6.59766 33.6758 5.27734 31.583 4.07227C29.5059 2.83301 27.3643 1.70801 25.168 0.700195C23.9941 0.217773 22.7363 -0.0195312 21.4688 0.00195312C20.2012 -0.0244141 18.9424 0.212891 17.7705 0.700195C15.5742 1.70898 13.4326 2.83398 11.3555 4.07227C8.00293 6.10645 5.28711 8.02539 5.28711 8.02539C4.21973 8.92383 3.34668 10.0156 2.70508 11.2324C2.20898 12.1719 2.96973 13.2002 4.03125 13.2002C4.03125 13.2002 nan nan nan nanCnan nan nan nan nan nanCnan nan nan nan nan nanC5.21094 13.2002 6.25879 12.5137 7.02051 11.6123C7.34668 11.2275 7.70605 10.8682 8.09766 10.541C8.09766 10.541 10.3408 8.96777 13.1084 7.29883C14.8232 6.28418 16.5918 5.36133 18.4053 4.53418C19.3721 4.13477 20.4121 3.93945 21.459 3.96191C22.5049 3.94434 23.5439 4.13867 24.5127 4.53418C26.3262 5.36035 28.0947 6.2832 29.8096 7.29883C31.5381 8.28809 33.21 9.37012 34.8203 10.541C36.252 11.6855 37.6836 14.0693 37.8262 15.9287C37.8262 15.9287 38.1602 18.6934 38.208 21.9688C38.2051 23.9922 38.0938 26.0127 37.874 28.0234C37.541 30.1289 36.4561 32.043 34.8203 33.4111C34.8203 33.4111 32.5771 35.0322 29.8096 36.7012C28.0947 37.7158 26.3262 38.6387 24.5127 39.4658C23.5449 39.8652 22.5059 40.0605 21.459 40.0381C20.4141 40.0605 19.375 39.8701 18.4053 39.4805C16.5908 38.6543 14.8232 37.7305 13.1084 36.7148C10.3408 35.0947 8.09766 33.4258 8.09766 33.4258C7.74316 33.1416 7.3877 32.7822 7.05176 32.373C6.30859 31.4678 5.26562 30.7998 4.09473 30.7998C4.09473 30.7998 nan nan nan nanCnan nan nan nan nan nanCnan nan nan nan nan nanC3.00879 30.7998 2.25391 31.8564 2.7793 32.8066C3.4707 34.0576 4.37891 35.2031 5.28711 35.9336C5.28711 35.9336 8.00293 37.9688 11.3555 39.9453C13.4326 41.1836 15.5732 42.3096 17.7705 43.3174C18.9453 43.793 20.2031 44.0244 21.4688 43.998C22.7363 44.0244 23.9961 43.7871 25.168 43.2998C27.3643 42.291 29.5049 41.166 31.583 39.9277C34.9346 37.8926 37.6514 35.916 37.6514 35.916C39.6328 34.248 40.9463 31.9141 41.3496 29.3457C41.6152 26.8936 41.751 24.4287 41.7539 21.9619C41.6963 17.9678 41.292 14.5957 41.292 14.5957Z" fill="url(#paint_linear_2233_95377_0)" fill-opacity="1.000000" fill-rule="nonzero"/>
</svg>
