<svg  viewBox="0 0 24 24" fill="none" xmlns="http://www.w3.org/2000/svg" xmlns:xlink="http://www.w3.org/1999/xlink">

	<defs>
		<clipPath id="clip2_178431">
			<rect id="Log_Out" width="24.000000" height="24.000000" fill="white" fill-opacity="0"/>
		</clipPath>
	</defs>
	<g clip-path="url(#clip2_178431)">
		<path id="Vector" d="M5 15L2 12L5 9M2 12L15 12M9 7.24859L9 7.2002C9 6.08009 9 5.51962 9.21777 5.0918C9.40967 4.71547 9.71533 4.40973 10.0918 4.21799C10.5195 4 11.0801 4 12.2002 4L16.8003 4C17.9204 4 18.4795 4 18.9072 4.21799C19.2837 4.40973 19.5903 4.71547 19.7822 5.0918C20 5.5192 20 6.07899 20 7.19691L20 16.8036C20 17.9215 20 18.4805 19.7822 18.9079C19.5903 19.2842 19.2837 19.5905 18.9072 19.7822C18.48 20 17.9209 20 16.8032 20L12.1968 20C11.0791 20 10.519 20 10.0918 19.7822C9.71533 19.5905 9.40967 19.2839 9.21777 18.9076C9 18.4798 9 17.9201 9 16.8L9 16.75" stroke="#262633" stroke-opacity="1.000000" stroke-width="2.000000" stroke-linejoin="round"/>
	</g>
</svg>
