<svg viewBox="0 0 31.333 34.7344" fill="none" xmlns="http://www.w3.org/2000/svg">
    <path id="Vector"
          d="M17.3643 33.3242L17.3594 33.3262C16.9531 33.5098 16.749 33.6025 16.2881 33.6816C15.9961 33.7314 15.3398 33.7314 15.0469 33.6816C14.584 33.6016 14.3779 33.5098 13.9688 33.3242C10.1074 31.5762 1 26.1777 1 14.1357L1 6.86719C1 4.81348 1 3.78613 1.39941 3.00195C1.75098 2.31152 2.31152 1.75098 3.00195 1.39941C3.78613 1 4.81348 1 6.86719 1L24.4668 1C26.5205 1 27.5459 1 28.3301 1.39941C29.0205 1.75098 29.583 2.31152 29.9346 3.00195C30.333 3.78516 30.333 4.81152 30.333 6.86133L30.333 14.1357C30.333 26.1777 21.2256 31.5762 17.3643 33.3242ZM21.167 12L13.833 19.333L10.167 15.667"
          stroke="#262633" stroke-opacity="1.000000" stroke-width="2.000000" stroke-linejoin="round"
          stroke-linecap="round"/>
</svg>
