<svg viewBox="0 0 24 24" fill="none" xmlns="http://www.w3.org/2000/svg" xmlns:xlink="http://www.w3.org/1999/xlink">
	<defs>
		<clipPath id="clip40_54416">
			<rect id="Image_01" width="24.000000" height="24.000000" fill="white" fill-opacity="0"/>
		</clipPath>
	</defs>
	<g clip-path="url(#clip40_54416)">
		<path id="Vector" d="M3 7.2C3 6.08 3 5.51 3.21 5.09C3.41 4.71 3.71 4.4 4.09 4.21C4.51 4 5.08 4 6.19 4L17.8 4C18.91 4 19.48 4 19.9 4.21C20.28 4.4 20.58 4.71 20.78 5.09C21 5.51 21 6.07 21 7.19L21 16.8C21 17.28 21 17.66 20.98 17.97C20.95 18.38 20.9 18.66 20.78 18.9C20.58 19.28 20.28 19.59 19.9 19.78C19.48 20 18.92 20 17.8 20L6.19 20C5.07 20 4.51 20 4.09 19.78C3.71 19.59 3.41 19.28 3.21 18.9C3.01 18.5 3 17.98 3 17C3 16.93 3 16.86 3 16.8L3 7.2ZM3 17L7.76 11.43L7.76 11.43C8.19 10.94 8.4 10.69 8.65 10.6C8.87 10.52 9.11 10.53 9.33 10.61C9.58 10.7 9.79 10.95 10.21 11.45L12.88 14.65C13.26 15.12 13.46 15.35 13.69 15.44C13.9 15.53 14.13 15.54 14.34 15.47C14.59 15.4 14.8 15.19 15.23 14.76L15.73 14.26C16.17 13.82 16.39 13.6 16.64 13.53C16.85 13.47 17.08 13.48 17.29 13.57C17.53 13.67 17.73 13.91 18.11 14.39L20.98 17.97M20.98 17.97L21 17.99M14 9C14 8.44 14.44 8 15 8C15.55 8 16 8.44 16 9C16 9.55 15.55 10 15 10C14.44 10 14 9.55 14 9Z" stroke="#262633" stroke-opacity="1.000000" stroke-width="2.000000" stroke-linejoin="round"/>
	</g>
</svg>
