<svg viewBox="0 0 24 24" fill="none" xmlns="http://www.w3.org/2000/svg" xmlns:xlink="http://www.w3.org/1999/xlink">
	<defs>
		<clipPath id="clip40_54421">
			<rect id="Play" width="24.000000" height="24.000000" fill="white" fill-opacity="0"/>
		</clipPath>
	</defs>
	<g clip-path="url(#clip40_54421)">
		<path id="Vector" d="M5 17.33C5 18.21 5 18.65 5.18 18.91C5.34 19.14 5.59 19.28 5.87 19.32C6.18 19.36 6.57 19.15 7.35 18.74L17.35 13.41C18.21 12.95 18.64 12.72 18.78 12.41C18.9 12.15 18.9 11.84 18.78 11.58C18.64 11.27 18.21 11.04 17.35 10.58L17.35 10.58L7.35 5.25C6.57 4.84 6.18 4.63 5.87 4.67C5.59 4.71 5.34 4.85 5.18 5.08C5 5.34 5 5.78 5 6.66L5 17.33Z" stroke="#262633" stroke-opacity="1.000000" stroke-width="2.000000" stroke-linejoin="round"/>
	</g>
</svg>
