<svg  viewBox="0 0 16 4" fill="none" xmlns="http://www.w3.org/2000/svg">
	<path id="Vector" d="M13 2C13 1.44775 13.4492 1 14 1C14.5508 1 15 1.44775 15 2C15 2.55225 14.5508 3 14 3C13.4492 3 13 2.55225 13 2ZM7 2C7 1.44775 7.44922 1 8 1C8.55078 1 9 1.44775 9 2C9 2.55225 8.55078 3 8 3C7.44922 3 7 2.55225 7 2ZM1 2C1 1.44775 1.44922 1 2 1C2.55078 1 3 1.44775 3 2C3 2.55225 2.55078 3 2 3C1.44922 3 1 2.55225 1 2Z" stroke="#B3B8CC" stroke-opacity="1.000000" stroke-width="2.000000" stroke-linejoin="round"/>
</svg>
