<svg  viewBox="0 0 24 24" fill="none" xmlns="http://www.w3.org/2000/svg" xmlns:xlink="http://www.w3.org/1999/xlink">

	<defs>
		<clipPath id="clip2_178404">
			<rect id="Settings" width="24.000000" height="24.000000" fill="white" fill-opacity="0"/>
		</clipPath>
	</defs>
	<g clip-path="url(#clip2_178404)">
		<path id="Vector" d="M20.3501 8.92293L20.3516 8.92378C20.9478 9.25525 21.2456 9.42111 21.4629 9.65685C21.6553 9.86562 21.8013 10.1133 21.8911 10.3828C21.9922 10.6874 21.9932 11.0287 21.9946 11.7119L21.9956 12.2861C21.9976 12.9658 21.998 13.3077 21.8979 13.6126C21.8086 13.8839 21.6626 14.1327 21.4688 14.3427C21.25 14.5801 20.9487 14.7472 20.3472 15.0805L19.9858 15.2809L19.9839 15.2818C19.9287 15.3122 19.9014 15.3275 19.8745 15.3436C19.5996 15.5074 19.3682 15.7349 19.1992 16.0068C19.1826 16.0337 19.166 16.0615 19.1338 16.1171C19.1016 16.1727 19.0854 16.2007 19.0708 16.2286C18.9194 16.5104 18.8384 16.8248 18.8335 17.1445C18.833 17.1761 18.833 17.2081 18.8345 17.2724L18.8418 17.7119C18.853 18.3858 18.8589 18.7252 18.7642 19.0297C18.6797 19.3011 18.5381 19.5512 18.3496 19.7636C18.1367 20.0031 17.8418 20.1743 17.2534 20.5157L16.7588 20.803C16.1655 21.1471 15.8687 21.3196 15.5532 21.3855C15.2734 21.4438 14.9849 21.4413 14.7065 21.3788C14.3916 21.3081 14.0972 21.1315 13.5078 20.7777L13.1318 20.5519C13.0884 20.526 13.064 20.5112 13.0396 20.4975C12.7607 20.3422 12.4482 20.2559 12.1294 20.2456C12.0972 20.2446 12.0649 20.2446 11.9995 20.2446C11.9341 20.2446 11.9014 20.2446 11.8696 20.2456C11.5513 20.2558 11.2407 20.3418 10.9624 20.4965C10.9346 20.5121 10.9062 20.5289 10.8501 20.5625L10.4966 20.7743C9.90967 21.1258 9.61572 21.3017 9.30225 21.3721C9.02441 21.4344 8.7373 21.4366 8.4585 21.379C8.14404 21.3138 7.84766 21.1432 7.25488 20.8016L6.76123 20.5171C6.1665 20.1745 5.86914 20.0031 5.65479 19.7627C5.46484 19.55 5.32275 19.2994 5.23779 19.0273C5.14209 18.7197 5.14697 18.3763 5.15869 17.6902L5.16553 17.2827C5.1665 17.2137 5.16699 17.1794 5.1665 17.1455C5.16113 16.8315 5.08252 16.5229 4.93604 16.2452C4.91992 16.2152 4.90234 16.1853 4.86816 16.1255C4.8335 16.0648 4.81641 16.0345 4.79834 16.0053C4.63086 15.735 4.40137 15.5083 4.12939 15.3444C4.09961 15.3266 4.06885 15.3099 4.0083 15.276L3.6499 15.0766C3.05273 14.7445 2.75488 14.5787 2.5376 14.3427C2.34473 14.134 2.19971 13.8863 2.11035 13.6168C2.00928 13.3122 2.00684 12.9708 2.00537 12.2877L2.00439 11.7255C2.00244 11.0378 2.00244 10.6939 2.10352 10.3872C2.19287 10.1159 2.33887 9.86673 2.53271 9.65669C2.75146 9.41928 3.05225 9.25244 3.65381 8.91908L4.01514 8.71872C4.07129 8.68752 4.1001 8.67194 4.12744 8.65573C4.40234 8.49187 4.6333 8.26453 4.80225 7.99268C4.81885 7.96579 4.83447 7.93808 4.8667 7.88237C4.89893 7.82671 4.91504 7.79883 4.92969 7.77097C5.08105 7.48914 5.16357 7.17499 5.16797 6.85524C5.16846 6.82362 5.16699 6.79166 5.16553 6.72736L5.15869 6.3027C5.14697 5.61896 5.14209 5.27692 5.2373 4.97018C5.32178 4.69881 5.46289 4.44859 5.65186 4.23615C5.86426 3.99672 6.15918 3.82571 6.74707 3.48454L6.75244 3.48123L7.23975 3.19821L7.24268 3.19704C7.83594 2.85275 8.13232 2.68062 8.44775 2.61472C8.72754 2.55634 9.01562 2.55806 9.29443 2.62057C9.60938 2.69121 9.9043 2.86836 10.4937 3.22214L10.8496 3.4359C10.9058 3.46956 10.9336 3.48657 10.9614 3.50223C11.2402 3.65759 11.5518 3.74361 11.8706 3.75388C11.9023 3.7549 11.9365 3.7549 12.0015 3.7549C12.0664 3.7549 12.0991 3.7549 12.1313 3.75388C12.4497 3.74365 12.7603 3.6581 13.0386 3.50339C13.0664 3.48779 13.0947 3.4709 13.1509 3.43741L13.5044 3.22556L13.5078 3.22395C14.0933 2.8735 14.3857 2.69818 14.6992 2.6279C14.9766 2.56561 15.2637 2.56294 15.5425 2.62057C15.8569 2.68571 16.1538 2.85658 16.7466 3.19821L17.2402 3.48276C17.835 3.82535 18.1318 3.99686 18.3462 4.23726C18.5361 4.44992 18.6782 4.70053 18.7632 4.97263C18.8589 5.27893 18.853 5.62025 18.8413 6.30078L18.8345 6.72604C18.833 6.7912 18.833 6.82399 18.8335 6.85606C18.8384 7.17516 18.9199 7.48866 19.0708 7.76999C19.0859 7.79823 19.1021 7.82678 19.1348 7.8831C19.1675 7.93948 19.1831 7.96802 19.2002 7.99522C19.3682 8.26564 19.5981 8.49165 19.8716 8.65524C19.8989 8.67169 19.9268 8.68756 19.9839 8.71921L20.3501 8.92293ZM8.00049 12C8.00049 9.79082 9.79102 7.99997 12.0005 7.99997C14.2095 7.99997 16.0005 9.79082 16.0005 12C16.0005 14.2091 14.2095 16 12.0005 16C9.79102 16 8.00049 14.2091 8.00049 12Z" stroke="#262633" stroke-opacity="1.000000" stroke-width="2.000000" stroke-linejoin="round"/>
	</g>
</svg>
