<svg viewBox="0 0 24 24" fill="none" xmlns="http://www.w3.org/2000/svg" xmlns:xlink="http://www.w3.org/1999/xlink">
	<desc>
			Created with Pixso.
	</desc>
	<defs>
		<clipPath id="clip30_90203">
			<rect id="Suitcase" width="24.000000" height="24.000000" fill="white" fill-opacity="0"/>
		</clipPath>
	</defs>
	<g clip-path="url(#clip30_90203)">
		<path id="Vector" d="M3 11.2002C3 10.0801 3 9.51953 3.21875 9.0918C3.41016 8.71558 3.71484 8.40967 4.0918 8.21802C4.51953 8 5.08008 8 6.19922 8L8 8L16 8L17.8008 8C18.9199 8 19.4805 8 19.9082 8.21802C20.2832 8.40967 20.5898 8.71558 20.7812 9.0918C21 9.51929 21 10.0791 21 11.197L21 16.8035C21 17.9214 21 18.4805 20.7812 18.908C20.5898 19.2842 20.2832 19.5906 19.9082 19.7822C19.4805 20 18.9219 20 17.8027 20L6.19727 20C5.07812 20 4.51953 20 4.0918 19.7822C3.71484 19.5906 3.41016 19.2842 3.21875 18.908C3 18.48 3 17.9204 3 16.8003L3 11.2002ZM16 8C16 5.79077 14.209 4 12 4C9.79102 4 8 5.79077 8 8" stroke="#85889E" stroke-opacity="1.000000" stroke-width="2.000000" stroke-linejoin="round"/>
	</g>
</svg>
