<svg viewBox="0 0 28.5078 23.3613" fill="none" xmlns="http://www.w3.org/2000/svg">
    <path id="Vector"
          d="M28.5 2C28.1064 6.10352 26.3955 16.0791 25.5273 20.6748C25.1582 22.623 24.4219 23.2725 23.7383 23.3506C22.2129 23.4814 21.0547 22.3643 19.582 21.4033C17.2666 19.8965 15.9502 18.9619 13.7139 17.5068C11.1084 15.8184 12.7939 14.8828 14.292 13.377C14.6875 12.9873 21.4219 6.93555 21.5557 6.38965C21.5732 6.30762 21.5703 6.22168 21.5479 6.14062C21.5244 6.05859 21.4814 5.98438 21.4219 5.92285C21.2637 5.79199 21.0547 5.84473 20.8711 5.87012C20.6338 5.92285 16.9492 8.33887 9.7666 13.1162C8.71582 13.8174 7.7666 14.1816 6.92578 14.1553C5.97852 14.1309 4.18848 13.6367 2.84766 13.1943C1.18945 12.6758 -0.0986328 12.3896 0.00585938 11.4814C0.0585938 11.0137 0.71582 10.5469 1.9541 10.0518C9.63574 6.75293 14.7402 4.57129 17.292 3.53223C24.6074 0.520508 26.1074 0 27.1064 0C27.3174 0 27.8164 0.0517578 28.1328 0.311523C28.3447 0.488281 28.4766 0.740234 28.5 1.0127C28.4746 1.16797 28.5273 1.63574 28.5 2Z"
          fill="#F7F8FA" fill-opacity="1.000000" fill-rule="evenodd"/>
</svg>
