<svg viewBox="0 0 24 24" fill="none" xmlns="http://www.w3.org/2000/svg" xmlns:xlink="http://www.w3.org/1999/xlink">
	<desc>
			Created with Pixso.
	</desc>
	<defs>
		<clipPath id="clip30_90182">
			<rect id="User_Card_ID" width="24.000000" height="24.000000" fill="white" fill-opacity="0"/>
		</clipPath>
	</defs>
	<g clip-path="url(#clip30_90182)">
		<path id="Vector" d="M7 11C7 9.89551 7.89453 9 9 9C10.1055 9 11 9.89551 11 11C11 12.1045 10.1055 13 9 13C7.89453 13 7 12.1045 7 11ZM3 9.2002C3 8.08008 3 7.51953 3.21875 7.0918C3.41016 6.71558 3.71484 6.40967 4.0918 6.21802C4.51953 6 5.08008 6 6.19922 6L17.8008 6C18.9199 6 19.4805 6 19.9082 6.21802C20.2832 6.40967 20.5898 6.71558 20.7812 7.0918C21 7.51929 21 8.0791 21 9.19702L21 14.803C21 15.9209 21 16.48 20.7812 16.9075C20.5898 17.2837 20.2832 17.5906 19.9082 17.7822C19.4805 18 18.9219 18 17.8027 18L12 18L6.19727 18C6.12891 18 6.06445 18 6 18C5.01172 17.9993 4.49414 17.9868 4.0918 17.7822C3.71484 17.5906 3.41016 17.2837 3.21875 16.9075C3 16.4795 3 15.9204 3 14.8003L3 9.2002ZM12 18C12 16.8955 10.6562 16 9 16C7.34375 16 6 16.8955 6 18M18 14L14 14M18 11L15 11" stroke="#85889E" stroke-opacity="1.000000" stroke-width="2.000000" stroke-linejoin="round"/>
	</g>
</svg>
