<svg width="20.000000" height="20.000000" viewBox="0 0 20 20" fill="none" xmlns="http://www.w3.org/2000/svg" xmlns:xlink="http://www.w3.org/1999/xlink">
	<desc>
			Created with Pixso.
	</desc>
	<defs/>
	<path id="Vector" d="M1 10C1 5.0293 5.0293 1 10 1C14.9707 1 19 5.0293 19 10C19 14.9707 14.9707 19 10 19C5.0293 19 1 14.9707 1 10ZM10 12L10 11C10.5537 11 11.0957 10.8467 11.5674 10.5576C12.0391 10.2686 12.4219 9.85498 12.6729 9.36182C12.9238 8.86865 13.0342 8.31592 12.9902 7.76416C12.9473 7.2124 12.752 6.68408 12.4268 6.23633C12.1016 5.78857 11.6592 5.43945 11.1475 5.22803C10.6357 5.0166 10.0771 4.9502 9.53027 5.03711C8.9834 5.12402 8.47168 5.35986 8.05078 5.71973C7.62988 6.0791 7.31738 6.54736 7.14648 7.07373M10.0498 15.1001L9.9502 15.1001L9.9502 15L10.0498 15L10.0498 15.1001Z" stroke="#85889E" stroke-opacity="1.000000" stroke-width="2.000000" stroke-linejoin="round" stroke-linecap="round"/>
</svg>
