<svg  viewBox="0 0 44 44" fill="none" xmlns="http://www.w3.org/2000/svg" xmlns:xlink="http://www.w3.org/1999/xlink">
	<defs/>
	<path id="Vector" d="M22.917 44L21.083 44C11.1465 44 6.16016 44 3.08008 40.9199C0 37.8398 0 32.8535 0 22.9531L0 21.0835C0 11.1465 0 6.16016 3.06152 3.08008C6.1416 0 11.1104 0 21.083 0L22.917 0C32.8721 0 37.8584 0 40.9385 3.08008C44 6.16016 44 11.1465 44 21.0469L44 22.9165C44 32.8535 44 37.8398 40.9385 40.9199C37.8584 44 32.8896 44 22.917 44ZM7.42383 13.3833C7.66211 24.8232 13.3828 31.6982 23.4111 31.6982L23.9795 31.6982L23.9795 25.1533C25.748 25.376 27.4121 26.1162 28.7617 27.2803C30.1123 28.4448 31.0889 29.9814 31.5693 31.6982L36.7754 31.6982C36.2402 29.7217 35.292 27.8809 33.9932 26.2979C32.6943 24.7144 31.0752 23.4248 29.2412 22.5132C30.8838 21.5161 32.3037 20.1904 33.4102 18.6196C34.5176 17.0488 35.2891 15.2661 35.6758 13.3833L30.9463 13.3833C29.9189 17.0132 26.876 20.3135 23.9795 20.625L23.9795 13.3833L19.249 13.3833L19.249 26.0703C16.3154 25.3369 12.6123 21.7803 12.4473 13.3833L7.42383 13.3833Z" fill="#0077FF" fill-opacity="1.000000" fill-rule="evenodd"/>
</svg>
