<svg viewBox="0 0 24 24" fill="none" xmlns="http://www.w3.org/2000/svg" xmlns:xlink="http://www.w3.org/1999/xlink">
	<defs>
		<clipPath id="clip30_90245">
			<rect id="Wavy_Check" width="24.000000" height="24.000000" fill="white" fill-opacity="0"/>
		</clipPath>
	</defs>
	<g clip-path="url(#clip30_90245)">
		<path id="Vector" d="M14.4668 4.49927C14.7754 4.76147 15.1562 4.91992 15.5586 4.95215L17.1582 5.07959C18.0977 5.15454 18.8457 5.90088 18.9199 6.84082L19.0469 8.44019C19.0801 8.84302 19.2383 9.22559 19.5 9.5332L20.541 10.7539C21.1523 11.4717 21.1523 12.5276 20.541 13.2454L19.5 14.4661C19.2383 14.7737 19.0801 15.1565 19.0469 15.5593L18.9199 17.1582C18.8457 18.0984 18.0996 18.8452 17.1582 18.9202L15.5586 19.0479C15.1562 19.0801 14.7734 19.238 14.4668 19.5002L13.2461 20.5408C12.5273 21.1523 11.4727 21.1526 10.7539 20.5408L9.5332 19.5002C9.22461 19.2383 8.84375 19.0798 8.43945 19.0476L6.83984 18.9202C5.90039 18.8452 5.1543 18.0986 5.08008 17.1584L4.95117 15.5593C4.91992 15.1565 4.76172 14.7742 4.49805 14.4666L3.45898 13.2454C2.84766 12.5276 2.84766 11.4719 3.45898 10.7542L4.5 9.53296C4.76172 9.22534 4.91992 8.84302 4.95117 8.44019L5.08008 6.84106C5.1543 5.90088 5.90234 5.15454 6.8418 5.07935L8.43945 4.9519C8.8418 4.91992 9.22461 4.76147 9.5332 4.49927L10.7539 3.45874C11.4727 2.84717 12.5273 2.84717 13.2461 3.45874L14.4668 4.49927ZM15 9.99976L11 13.9998L9 11.9998" stroke="#85889E" stroke-opacity="1.000000" stroke-width="2.000000" stroke-linejoin="round" stroke-linecap="round"/>
	</g>
</svg>
