<svg width="48.000000" height="48.000000" viewBox="0 0 48 48" fill="none" xmlns="http://www.w3.org/2000/svg" xmlns:xlink="http://www.w3.org/1999/xlink">
	<desc>
			Created with Pixso.
	</desc>
	<defs>
		<clipPath id="clip2233_95390">
			<rect id="WeChat" rx="12.000000" width="48.000000" height="48.000000" fill="white" fill-opacity="0"/>
		</clipPath>
	</defs>
	<rect id="WeChat" rx="12.000000" width="48.000000" height="48.000000" fill="#FFFFFF" fill-opacity="1.000000"/>
	<g clip-path="url(#clip2233_95390)">
		<path id="Vector" d="M24.917 46L23.083 46C13.1465 46 8.16016 46 5.08008 42.9199C2 39.8398 2 34.8535 2 24.9531L2 23.083C2 13.1465 2 8.16016 5.06152 5.08008C8.1416 2 13.1104 2 23.083 2L24.917 2C34.8721 2 39.8584 2 42.9385 5.08008C46 8.16016 46 13.1465 46 23.0469L46 24.917C46 34.8535 46 39.8398 42.9385 42.9199C39.8584 46 34.8896 46 24.917 46Z" fill="#07C260" fill-opacity="1.000000" fill-rule="evenodd"/>
		<path id="Vector" d="M19.7031 10C19.8408 10.0059 19.9775 10.0137 20.1152 10.0186C21.6016 10.0693 23.0576 10.2998 24.4756 10.7373C26.291 11.2979 27.9443 12.1465 29.3916 13.3555C30.4727 14.2568 31.3604 15.3096 32.0127 16.543C32.0996 16.707 32.1777 16.875 32.2666 17.0557C32.1543 17.0449 32.0596 17.0322 31.9648 17.0264C31.2598 16.9873 30.5557 17.0098 29.8535 17.0732C28.8789 17.1602 27.916 17.3457 26.9805 17.626C25.0889 18.1943 23.3965 19.1045 21.9443 20.418C20.8242 21.4297 19.9482 22.6104 19.3584 23.9854C18.915 25.0156 18.6699 26.1172 18.6357 27.2334C18.5947 28.4912 18.8379 29.6982 19.3125 30.8662C19.3271 30.9033 19.3418 30.9404 19.3555 30.9775C19.3564 30.9844 19.3555 30.9902 19.3535 30.9961C19.1953 30.9961 19.0381 31 18.8799 30.9961C18.1074 30.9717 17.3389 30.8926 16.5781 30.7588C15.7744 30.6172 14.9834 30.416 14.2109 30.1572C14.1836 30.1455 14.1533 30.1416 14.124 30.1445C14.0938 30.1465 14.0654 30.1572 14.04 30.1729C12.5977 31.0146 11.1543 31.8545 9.71094 32.6934C9.70801 32.6953 9.70508 32.6973 9.70215 32.6992C9.6709 32.7168 9.63086 32.6865 9.64355 32.6523L9.64355 32.6523C10.0908 31.3516 10.5391 30.0508 10.9873 28.75C11.0117 28.6807 11 28.6475 10.9375 28.6064C9.87793 27.9336 8.93457 27.1328 8.13965 26.1748C7.11621 24.9414 6.4209 23.5557 6.13379 21.9902C5.98926 21.2012 5.96191 20.3955 6.05273 19.5986C6.25977 17.7715 7.01953 16.1748 8.21094 14.7617C9.16895 13.626 10.3252 12.7178 11.6328 11.9863C13.043 11.1963 14.5518 10.6602 16.1455 10.3418C17.1836 10.1328 18.2412 10.0225 19.3018 10.0137C19.3301 10.0117 19.3584 10.0068 19.3857 10L19.7031 10ZM14.1162 14.3838C13.1309 14.3857 12.3154 15.1689 12.3145 16.1133C12.3135 17.0938 13.1211 17.8838 14.1211 17.8818C15.1162 17.8809 15.9229 17.0938 15.9229 16.126C15.9229 15.1699 15.1055 14.3818 14.1162 14.3838ZM23.1426 14.3838C22.1592 14.3799 21.3408 15.1602 21.3359 16.1064C21.332 17.0898 22.1289 17.8779 23.1338 17.8828C24.1318 17.8877 24.9424 17.0957 24.9424 16.1152C24.9443 15.1719 24.1279 14.3877 23.1426 14.3838Z" fill="#F7F8FA" fill-opacity="1.000000" fill-rule="nonzero"/>
		<path id="Vector" d="M25.0664 8.82715Q22.7354 8.10742 20.1836 8.01953L20.1816 8.01953Q20.1006 8.0166 19.9238 8.00781Q19.8379 8.00391 19.793 8.00195L19.748 8L19.1436 8L19.0752 8.0166Q18.1318 8.03516 17.1992 8.14844Q16.4727 8.23535 15.7539 8.38086Q13.0322 8.92383 10.7197 10.2051Q10.6875 10.2227 10.6553 10.2412Q8.28906 11.5654 6.68164 13.4727Q5.07617 15.3779 4.42969 17.5674Q4.16992 18.4463 4.06543 19.3721Q3.97949 20.124 4.00586 20.8721Q4.03125 21.6143 4.16699 22.3516Q4.2998 23.0762 4.52832 23.7695Q5.17773 25.7383 6.60059 27.4521Q7.49805 28.5332 8.63867 29.4287L7.75879 31.9834Q7.51367 32.6611 7.67188 33.2266Q7.83398 33.8057 8.41895 34.2666Q8.95605 34.6895 9.52246 34.7334Q10.0986 34.7773 10.7061 34.4287L10.7178 34.4219L14.3652 32.2979Q14.5371 32.3477 14.7109 32.3936Q15.4619 32.5928 16.2305 32.7285Q16.457 32.7676 16.6836 32.8018Q17.7451 32.9619 18.8262 32.9951Q18.9668 32.999 19.2129 32.9971Q19.3096 32.9961 19.3535 32.9961L20.8359 32.9961L21.2676 31.5781Q21.3271 31.3809 21.3467 31.1797Q21.3662 30.9795 21.3447 30.7744L21.3193 30.5205L21.2305 30.2812Q21.1963 30.1904 21.165 30.1133Q20.6025 28.7275 20.6328 27.3564Q20.6338 27.3252 20.6348 27.2949Q20.6523 26.7168 20.7637 26.1582Q20.9053 25.4502 21.1973 24.7734Q21.2607 24.623 21.3311 24.4766Q22.0156 23.0488 23.2852 21.9014Q23.4814 21.7236 23.6855 21.5576Q25.3418 20.207 27.5547 19.542Q27.9932 19.4102 28.4375 19.3115Q29.2246 19.1377 30.0342 19.0654Q31.0068 18.9766 31.8535 19.0234Q31.8643 19.0244 31.9453 19.0332Q32.0225 19.042 32.0693 19.0459L35.6514 19.4014L34.0605 16.1719Q34.0361 16.1221 33.9863 16.0186Q33.8564 15.751 33.7803 15.6074Q33.6631 15.3857 33.5371 15.1699Q32.4443 13.2969 30.6738 11.8193Q30.5449 11.7119 30.4141 11.6074Q28.1016 9.76367 25.0664 8.82715ZM9.64355 32.6523C9.63086 32.6865 9.6709 32.7168 9.70215 32.6992C9.70508 32.6973 9.70801 32.6953 9.71094 32.6934C10.2822 32.3623 10.8525 32.0303 11.4229 31.6982C11.7002 31.5371 11.9775 31.376 12.2539 31.2139C12.8496 30.8672 13.4453 30.5205 14.04 30.1729C14.0654 30.1572 14.0938 30.1465 14.124 30.1445C14.1533 30.1416 14.1836 30.1455 14.2109 30.1572C14.9834 30.416 15.7744 30.6172 16.5781 30.7588C16.7773 30.7939 16.9775 30.8252 17.1777 30.8525C17.2383 30.8613 17.2979 30.8691 17.3584 30.877C17.8633 30.9404 18.3711 30.9805 18.8799 30.9961C18.9756 30.999 19.0703 30.998 19.166 30.9971C19.1758 30.9971 19.1855 30.9971 19.1953 30.9971C19.2324 30.9971 19.2695 30.9961 19.3066 30.9961C19.3223 30.9961 19.3379 30.9961 19.3535 30.9961C19.3555 30.9902 19.3564 30.9844 19.3555 30.9775C19.3545 30.9766 19.3545 30.9746 19.3535 30.9736C19.3398 30.9375 19.3262 30.9014 19.3125 30.8662C19.0625 30.252 18.8779 29.6279 18.7637 28.9902C18.6611 28.415 18.6162 27.8301 18.6357 27.2334C18.6699 26.1172 18.915 25.0156 19.3584 23.9854C19.9482 22.6104 20.8242 21.4297 21.9443 20.418C22.1592 20.2236 22.3789 20.0381 22.6045 19.8613C23.793 18.9277 25.124 18.2354 26.5781 17.7529C26.7119 17.709 26.8457 17.666 26.9805 17.626C27.916 17.3457 28.8789 17.1602 29.8535 17.0732C29.9043 17.0693 29.9561 17.0645 30.0078 17.0605C30.6592 17.0068 31.3115 16.9902 31.9648 17.0264C32.0596 17.0322 32.1543 17.0449 32.2666 17.0557C32.1777 16.875 32.0996 16.707 32.0127 16.543C31.7246 15.9971 31.3896 15.4873 31.0127 15.0098C30.5371 14.4072 29.9941 13.8584 29.3916 13.3555C27.9443 12.1465 26.291 11.2979 24.4756 10.7373C23.0576 10.2998 21.6016 10.0693 20.1152 10.0186C19.9775 10.0137 19.8408 10.0059 19.7031 10L19.3857 10C19.3584 10.0068 19.3301 10.0117 19.3018 10.0137C18.2412 10.0225 17.1836 10.1328 16.1455 10.3418C14.5518 10.6602 13.043 11.1963 11.6328 11.9863C10.3252 12.7178 9.16895 13.626 8.21094 14.7617C7.01953 16.1748 6.25977 17.7715 6.05273 19.5986C5.96191 20.3955 5.98926 21.2012 6.13379 21.9902C6.4209 23.5557 7.11621 24.9414 8.13965 26.1748C8.93457 27.1328 9.87793 27.9336 10.9375 28.6064C11 28.6475 11.0117 28.6807 10.9873 28.75C10.8604 29.1191 10.7324 29.4893 10.6055 29.8584C10.5 30.165 10.3945 30.4707 10.2891 30.7764C10.0732 31.4023 9.8584 32.0273 9.64355 32.6523ZM24.9395 16.2266C24.9414 16.1895 24.9424 16.1523 24.9424 16.1152C24.9443 15.1719 24.1279 14.3877 23.1426 14.3838C22.1592 14.3799 21.3408 15.1602 21.3359 16.1064C21.333 16.7725 21.6973 17.3477 22.2441 17.6523C22.5059 17.7979 22.8086 17.8809 23.1338 17.8828C24.0938 17.8867 24.8799 17.1553 24.9395 16.2266ZM11.5566 33.2402L11.5283 33.3213Q11.543 33.2812 11.5566 33.2402ZM14.1162 14.3838C13.1309 14.3857 12.3154 15.1689 12.3145 16.1133C12.3135 17.0938 13.1211 17.8838 14.1211 17.8818C15.1162 17.8809 15.9229 17.0938 15.9229 16.126C15.9229 15.1699 15.1055 14.3818 14.1162 14.3838ZM14.291 16.0049Q14.3145 16.0547 14.3145 16.1152L14.3145 16.1162Q14.3145 16.291 14.2314 16.3516Q14.1875 16.3838 14.1211 16.3838Q14.0908 16.3838 14.0645 16.375Q14.0312 16.3623 14.0029 16.335Q13.9863 16.3193 13.9727 16.3008Q13.9229 16.2305 13.9229 16.126Q13.9229 15.9775 13.9951 15.9199Q14.042 15.8828 14.1182 15.8818Q14.1348 15.8818 14.1514 15.8857Q14.2002 15.8965 14.2422 15.9375Q14.2734 15.9678 14.291 16.0049ZM23.2695 15.9219Q23.3369 15.9785 23.3359 16.1162L23.3359 16.1172Q23.3359 16.2881 23.2529 16.3496Q23.2061 16.3838 23.1348 16.3838Q23.0693 16.3838 23.0273 16.3525Q22.9424 16.292 22.9424 16.1143Q22.9434 16.0518 22.9678 16.001Q22.9854 15.9668 23.0146 15.9375Q23.0527 15.9004 23.0977 15.8887Q23.1201 15.8828 23.1436 15.8828Q23.2227 15.8828 23.2695 15.9219Z" fill="#07C260" fill-opacity="1.000000" fill-rule="evenodd"/>
		<path id="Vector" d="M38.4375 37.8994C38.4502 37.9346 38.4092 37.9658 38.377 37.9473L37.1719 37.2471C36.373 36.7842 35.5742 36.3203 34.7764 35.8564C34.7529 35.8418 34.7275 35.832 34.7002 35.8281C34.6729 35.8252 34.6455 35.8271 34.6191 35.835C33.4004 36.1602 32.1572 36.2803 30.8965 36.2461C29.1943 36.2012 27.5635 35.8496 26.0137 35.1562C24.834 34.6279 23.7744 33.9287 22.8652 33.0264C21.8301 31.998 21.0752 30.8076 20.6934 29.4111C20.2559 27.8135 20.3623 26.2432 20.999 24.71C21.4238 23.6865 22.0518 22.792 22.8447 22.0039C23.959 20.8955 25.2793 20.0947 26.7646 19.5449C28.0918 19.0537 29.4668 18.7998 30.8867 18.7637C32.9062 18.7119 34.8359 19.0801 36.6621 19.9277C37.7529 20.4336 38.7344 21.0928 39.5889 21.9248C40.5303 22.8428 41.2461 23.9023 41.6758 25.1338C41.998 26.0449 42.1289 27.0088 42.0625 27.9688C41.9473 29.6406 41.29 31.0996 40.2109 32.3906C39.4395 33.3154 38.5088 34.0625 37.4561 34.667C37.376 34.7129 37.3555 34.75 37.3857 34.8389C37.7383 35.8584 38.0889 36.8789 38.4375 37.8994L38.4375 37.8994ZM27.6455 23.1309C26.6543 23.1318 25.8447 23.9189 25.8457 24.8779C25.8457 25.1084 25.8926 25.3359 25.9824 25.5479C26.0732 25.7607 26.2061 25.9531 26.374 26.1162C26.542 26.2783 26.7412 26.4072 26.96 26.4951C27.1787 26.583 27.4141 26.6279 27.6504 26.6279C28.6553 26.6279 29.4512 25.8428 29.4502 24.8564C29.4492 23.915 28.6289 23.1279 27.6455 23.1309ZM33.0625 24.875C33.0615 25.1045 33.1074 25.333 33.1973 25.5449C33.2871 25.7578 33.4199 25.9512 33.5869 26.1143C33.7549 26.2773 33.9541 26.4062 34.1729 26.4941C34.3916 26.582 34.627 26.627 34.8633 26.627C35.8662 26.627 36.665 25.8467 36.665 24.8672C36.665 23.9141 35.8574 23.1348 34.8643 23.1299C33.877 23.126 33.0615 23.9141 33.0625 24.875Z" fill="#F7F8FA" fill-opacity="1.000000" fill-rule="nonzero"/>
		<path id="Vector" d="M36.167 38.9766L36.168 38.9766L37.3721 39.6768Q37.5156 39.7598 37.6689 39.8184Q37.8184 39.876 37.9775 39.9092Q38.1309 39.9414 38.2871 39.9502Q38.4434 39.959 38.6016 39.9424Q38.8945 39.9131 39.1562 39.8086Q39.4199 39.7031 39.6533 39.5215Q39.8984 39.3311 40.0693 39.0879Q40.2383 38.8477 40.335 38.5576Q40.3887 38.3955 40.415 38.2285Q40.4414 38.0625 40.4395 37.8926Q40.4365 37.5459 40.3291 37.25L39.7471 35.5547Q40.874 34.7168 41.7461 33.6738Q43.1768 31.9609 43.7305 30.002Q43.9902 29.082 44.0576 28.1074Q44.123 27.1582 43.9951 26.2354Q43.8711 25.3428 43.5645 24.4746Q43.4189 24.0576 43.2363 23.6562Q42.4492 21.9209 40.9844 20.4922Q40.8066 20.3193 40.6221 20.1533Q39.251 18.9238 37.5039 18.1133Q36.5752 17.6826 35.6055 17.3887Q33.334 16.7002 30.8359 16.7637Q28.9414 16.8125 27.1748 17.3105Q26.6162 17.4678 26.0703 17.6699Q23.7539 18.5273 22.0146 20.0449Q21.7158 20.3057 21.4346 20.5859Q20.0752 21.9375 19.3164 23.5693Q19.2305 23.7539 19.1514 23.9434Q18.5918 25.292 18.4658 26.6807Q18.4551 26.793 18.4482 26.9053Q18.4316 27.1455 18.4297 27.3857Q18.4141 28.6602 18.7637 29.9385Q18.9072 30.4639 19.1084 30.9648Q19.8701 32.8701 21.4561 34.4453Q21.5078 34.4961 21.5605 34.5479Q23.1064 36.0459 25.1963 36.9814Q25.9336 37.3115 26.6973 37.5557Q28.6777 38.1875 30.8428 38.2451Q32.6992 38.2949 34.3887 37.9443L36.167 38.9766ZM37.4814 35.1143C37.4492 35.0225 37.418 34.9307 37.3857 34.8389C37.3555 34.75 37.376 34.7129 37.4561 34.667C38.5088 34.0625 39.4395 33.3154 40.2109 32.3906C41.29 31.0996 41.9473 29.6406 42.0625 27.9688C42.1289 27.0088 41.998 26.0449 41.6758 25.1338C41.2461 23.9023 40.5303 22.8428 39.5889 21.9248C38.7344 21.0928 37.7529 20.4336 36.6621 19.9277C34.8359 19.0801 32.9062 18.7119 30.8867 18.7637C29.4668 18.7998 28.0918 19.0537 26.7646 19.5449C25.2793 20.0947 23.959 20.8955 22.8447 22.0039C22.0518 22.792 21.4238 23.6865 20.999 24.71C20.3623 26.2432 20.2559 27.8135 20.6934 29.4111C21.0752 30.8076 21.8301 31.998 22.8652 33.0264C23.7744 33.9287 24.834 34.6279 26.0137 35.1562C27.5635 35.8496 29.1943 36.2012 30.8965 36.2461C32.1572 36.2803 33.4004 36.1602 34.6191 35.835C34.6455 35.8271 34.6729 35.8252 34.7002 35.8281C34.7275 35.832 34.7529 35.8418 34.7764 35.8564C35.1279 36.0605 35.4795 36.2656 35.832 36.4697C36.1152 36.6348 36.3994 36.7988 36.6826 36.9639C36.8457 37.0586 37.0088 37.1523 37.1719 37.2471L38.377 37.9473C38.4092 37.9658 38.4502 37.9346 38.4375 37.8994C38.2266 37.2812 38.0146 36.6621 37.8018 36.0439C37.6953 35.7344 37.5879 35.4238 37.4814 35.1143ZM36.5283 38.498Q36.5361 38.5234 36.5459 38.5488L36.5283 38.498ZM33.0625 24.875C33.0615 25.1045 33.1074 25.333 33.1973 25.5449C33.2871 25.7578 33.4199 25.9512 33.5869 26.1143C33.7549 26.2773 33.9541 26.4062 34.1729 26.4941C34.3916 26.582 34.627 26.627 34.8633 26.627C35.8662 26.627 36.665 25.8467 36.665 24.8672C36.665 23.9141 35.8574 23.1348 34.8643 23.1299C33.877 23.126 33.0615 23.9141 33.0625 24.875ZM27.6455 23.1309C26.6543 23.1318 25.8447 23.9189 25.8457 24.8779C25.8457 25.1084 25.8926 25.3359 25.9824 25.5479C26.0732 25.7607 26.2061 25.9531 26.374 26.1162C26.542 26.2783 26.7412 26.4072 26.96 26.4951C27.1787 26.583 27.4141 26.6279 27.6504 26.6279C28.6553 26.6279 29.4512 25.8428 29.4502 24.8564C29.4492 23.915 28.6289 23.1279 27.6455 23.1309ZM34.9854 24.6836Q35.0186 24.7178 35.0391 24.7656Q35.0625 24.8213 35.0625 24.874Q35.0625 24.9697 35.0186 25.0361Q35.0039 25.0586 34.9844 25.0771Q34.9551 25.1055 34.9219 25.1182Q34.8906 25.1299 34.8545 25.1299Q34.8438 25.1299 34.834 25.1279Q34.7891 25.1211 34.749 25.082Q34.7266 25.0615 34.7109 25.0371Q34.665 24.9668 34.665 24.8672Q34.665 24.8145 34.6836 24.7686Q34.7031 24.7227 34.7422 24.6836Q34.7969 24.6299 34.8545 24.627Q34.8574 24.627 34.8613 24.627Q34.8652 24.627 34.8701 24.627Q34.8945 24.6289 34.9189 24.6387Q34.9531 24.6523 34.9824 24.6807Q34.9834 24.6826 34.9854 24.6836ZM27.835 24.8008Q27.8457 24.8389 27.8457 24.8789L27.8457 24.876Q27.8457 24.9697 27.8027 25.0352Q27.7881 25.0596 27.7666 25.0801Q27.7305 25.1152 27.6875 25.126Q27.6699 25.1309 27.6504 25.1309Q27.6123 25.1309 27.5811 25.1172Q27.5557 25.1055 27.5332 25.085Q27.5225 25.0742 27.5127 25.0625Q27.4502 24.9854 27.4502 24.8584Q27.4502 24.8184 27.4619 24.7832Q27.4805 24.7305 27.5244 24.6875Q27.582 24.6309 27.6416 24.6279L27.6475 24.6279L27.6553 24.6279Q27.6797 24.6289 27.7041 24.6387Q27.7373 24.6523 27.7656 24.6797Q27.7676 24.6816 27.7686 24.6826Q27.8018 24.7158 27.8223 24.7637Q27.8301 24.7822 27.835 24.8008Z" fill="#07C260" fill-opacity="1.000000" fill-rule="evenodd"/>
		<path id="Vector" d="M14.1172 14.3828C15.1064 14.3809 15.9238 15.1699 15.9238 16.125C15.9238 17.0928 15.1172 17.8799 14.1221 17.8809C13.1221 17.8828 12.3145 17.0928 12.3154 16.1123C12.3174 15.168 13.1318 14.3848 14.1172 14.3828Z" fill="#07C260" fill-opacity="1.000000" fill-rule="evenodd"/>
		<path id="Vector" d="M23.1426 14.3828C24.1279 14.3867 24.9434 15.1709 24.9424 16.1143C24.9424 17.0947 24.1318 17.8867 23.1338 17.8818C22.1289 17.877 21.3311 17.0889 21.3359 16.1055C21.3408 15.1592 22.1592 14.3789 23.1426 14.3828Z" fill="#07C260" fill-opacity="1.000000" fill-rule="evenodd"/>
		<path id="Vector" d="M27.6455 23.1309C28.6289 23.1289 29.4492 23.9141 29.4502 24.8564C29.4512 25.8438 28.6553 26.627 27.6504 26.6279C27.4141 26.6279 27.1787 26.583 26.96 26.4951C26.7402 26.4082 26.542 26.2793 26.374 26.1162C26.2061 25.9541 26.0732 25.7607 25.9824 25.5488C25.8916 25.3359 25.8457 25.1084 25.8457 24.8779C25.8447 23.9189 26.6543 23.1318 27.6455 23.1309Z" fill="#07C260" fill-opacity="1.000000" fill-rule="evenodd"/>
		<path id="Vector" d="M33.0625 24.875C33.0625 23.9141 33.877 23.126 34.8643 23.1309C35.8574 23.1357 36.665 23.915 36.665 24.8682C36.665 25.8477 35.8662 26.6279 34.8633 26.6279C34.627 26.6279 34.3916 26.583 34.1729 26.4951C33.9541 26.4072 33.7549 26.2773 33.5869 26.1152C33.4199 25.9521 33.2871 25.7588 33.1973 25.5459C33.1074 25.333 33.0615 25.1055 33.0625 24.875Z" fill="#07C260" fill-opacity="1.000000" fill-rule="evenodd"/>
	</g>
</svg>
