<svg width="20" height="20" viewBox="0 0 20 20" fill="none" xmlns="http://www.w3.org/2000/svg">
<path d="M10 16.4583C9.65833 16.4583 9.375 16.1749 9.375 15.8333V13.3333C9.375 12.9916 9.65833 12.7083 10 12.7083C10.3417 12.7083 10.625 12.9916 10.625 13.3333V15.8333C10.625 16.1749 10.3417 16.4583 10 16.4583Z" fill="#A8A8AD"/>
<path d="M10.0007 19.7916C8.73398 19.7916 7.70898 18.7666 7.70898 17.4999C7.70898 16.2333 8.73398 15.2083 10.0007 15.2083C11.2673 15.2083 12.2923 16.2333 12.2923 17.4999C12.2923 18.7666 11.2673 19.7916 10.0007 19.7916ZM10.0007 16.4583C9.42565 16.4583 8.95898 16.9249 8.95898 17.4999C8.95898 18.0749 9.42565 18.5416 10.0007 18.5416C10.5757 18.5416 11.0423 18.0749 11.0423 17.4999C11.0423 16.9249 10.5757 16.4583 10.0007 16.4583Z" fill="#A8A8AD"/>
<path d="M14.9993 18.125H11.666C11.3243 18.125 11.041 17.8417 11.041 17.5C11.041 17.1583 11.3243 16.875 11.666 16.875H14.9993C15.341 16.875 15.6243 17.1583 15.6243 17.5C15.6243 17.8417 15.341 18.125 14.9993 18.125Z" fill="#A8A8AD"/>
<path d="M8.33333 18.125H5C4.65833 18.125 4.375 17.8417 4.375 17.5C4.375 17.1583 4.65833 16.875 5 16.875H8.33333C8.675 16.875 8.95833 17.1583 8.95833 17.5C8.95833 17.8417 8.675 18.125 8.33333 18.125Z" fill="#A8A8AD"/>
<path d="M12.916 13.9584H7.08268C4.39935 13.9584 3.54102 13.1001 3.54102 10.4167V4.58341C3.54102 1.90008 4.39935 1.04175 7.08268 1.04175H7.95767C9.06601 1.04175 9.42436 1.41676 9.8577 1.99176L10.7327 3.15845C10.8994 3.37511 10.8994 3.37512 11.166 3.37512H12.916C15.5993 3.37512 16.4577 4.23346 16.4577 6.91679V10.4167C16.4577 13.1001 15.5993 13.9584 12.916 13.9584ZM7.08268 2.29175C5.09102 2.29175 4.79102 2.59175 4.79102 4.58341V10.4167C4.79102 12.4084 5.09102 12.7084 7.08268 12.7084H12.916C14.9077 12.7084 15.2077 12.4084 15.2077 10.4167V6.91679C15.2077 4.92512 14.9077 4.62512 12.916 4.62512H11.166C10.341 4.62512 10.041 4.31671 9.74102 3.91671L8.85769 2.74178C8.56602 2.35011 8.52434 2.29175 7.95767 2.29175H7.08268Z" fill="#A8A8AD"/>
</svg>
