<svg width="20" height="20" viewBox="0 0 20 20" fill="none" xmlns="http://www.w3.org/2000/svg">
<path d="M14.166 18.9584H5.83268C2.15768 18.9584 1.04102 17.8417 1.04102 14.1667V5.83341C1.04102 2.15841 2.15768 1.04175 5.83268 1.04175H7.08268C8.54102 1.04175 8.99935 1.51675 9.58268 2.29175L10.8327 3.95841C11.1077 4.32508 11.1493 4.37508 11.666 4.37508H14.166C17.841 4.37508 18.9577 5.49175 18.9577 9.16675V14.1667C18.9577 17.8417 17.841 18.9584 14.166 18.9584ZM5.83268 2.29175C2.84935 2.29175 2.29102 2.85841 2.29102 5.83341V14.1667C2.29102 17.1417 2.84935 17.7084 5.83268 17.7084H14.166C17.1493 17.7084 17.7077 17.1417 17.7077 14.1667V9.16675C17.7077 6.19175 17.1493 5.62508 14.166 5.62508H11.666C10.5993 5.62508 10.2493 5.25841 9.83268 4.70841L8.58268 3.04175C8.14935 2.46675 8.01602 2.29175 7.08268 2.29175H5.83268Z" fill="#A8A8AD"/>
<path d="M16.666 5.94175C16.3243 5.94175 16.041 5.65841 16.041 5.31675V4.16675C16.041 2.85008 15.4827 2.29175 14.166 2.29175H6.66602C6.32435 2.29175 6.04102 2.00841 6.04102 1.66675C6.04102 1.32508 6.32435 1.04175 6.66602 1.04175H14.166C16.1827 1.04175 17.291 2.15008 17.291 4.16675V5.31675C17.291 5.65841 17.0077 5.94175 16.666 5.94175Z" fill="#A8A8AD"/>
</svg>
